<?xml version="1.0" encoding="utf-8" standalone="no"?>
<!DOCTYPE svg PUBLIC "-//W3C//DTD SVG 1.1//EN"
  "http://www.w3.org/Graphics/SVG/1.1/DTD/svg11.dtd">
<svg xmlns:xlink="http://www.w3.org/1999/xlink" width="648pt" height="432pt" viewBox="0 0 648 432" xmlns="http://www.w3.org/2000/svg" version="1.1">
 <metadata>
  <rdf:RDF xmlns:dc="http://purl.org/dc/elements/1.1/" xmlns:cc="http://creativecommons.org/ns#" xmlns:rdf="http://www.w3.org/1999/02/22-rdf-syntax-ns#">
   <cc:Work>
    <dc:type rdf:resource="http://purl.org/dc/dcmitype/StillImage"/>
    <dc:date>2026-03-25T02:17:26.545624</dc:date>
    <dc:format>image/svg+xml</dc:format>
    <dc:creator>
     <cc:Agent>
      <dc:title>Matplotlib v3.10.8, https://matplotlib.org/</dc:title>
     </cc:Agent>
    </dc:creator>
   </cc:Work>
  </rdf:RDF>
 </metadata>
 <defs>
  <style type="text/css">*{stroke-linejoin: round; stroke-linecap: butt}</style>
 </defs>
 <g id="figure_1">
  <g id="patch_1">
   <path d="M 0 432 
L 648 432 
L 648 0 
L 0 0 
z
" style="fill: #ffffff"/>
  </g>
  <g id="axes_1">
   <g id="patch_2">
    <path d="M 79.31 371.32 
L 611.775 371.32 
L 611.775 32.64 
L 79.31 32.64 
z
" style="fill: #ffffff"/>
   </g>
   <g id="matplotlib.axis_1">
    <g id="xtick_1">
     <g id="line2d_1">
      <path d="M 79.31 371.32 
L 79.31 32.64 
" clip-path="url(#p461f930700)" style="fill: none; stroke: #b0b0b0; stroke-width: 0.8; stroke-linecap: square"/>
     </g>
     <g id="line2d_2">
      <defs>
       <path id="m28230a608e" d="M 0 0 
L 0 3.5 
" style="stroke: #000000; stroke-width: 0.8"/>
      </defs>
      <g>
       <use xlink:href="#m28230a608e" x="79.31" y="371.32" style="stroke: #000000; stroke-width: 0.8"/>
      </g>
     </g>
     <g id="text_1">
      <!-- 1 -->
      <g transform="translate(72.9475 393.516875) scale(0.2 -0.2)">
       <defs>
        <path id="DejaVuSans-31" d="M 794 531 
L 1825 531 
L 1825 4091 
L 703 3866 
L 703 4441 
L 1819 4666 
L 2450 4666 
L 2450 531 
L 3481 531 
L 3481 0 
L 794 0 
L 794 531 
z
" transform="scale(0.015625)"/>
       </defs>
       <use xlink:href="#DejaVuSans-31"/>
      </g>
     </g>
    </g>
    <g id="xtick_2">
     <g id="line2d_3">
      <path d="M 145.75435 371.32 
L 145.75435 32.64 
" clip-path="url(#p461f930700)" style="fill: none; stroke: #b0b0b0; stroke-width: 0.8; stroke-linecap: square"/>
     </g>
     <g id="line2d_4">
      <g>
       <use xlink:href="#m28230a608e" x="145.75435" y="371.32" style="stroke: #000000; stroke-width: 0.8"/>
      </g>
     </g>
     <g id="text_2">
      <!-- 512 -->
      <g transform="translate(126.66685 393.516875) scale(0.2 -0.2)">
       <defs>
        <path id="DejaVuSans-35" d="M 691 4666 
L 3169 4666 
L 3169 4134 
L 1269 4134 
L 1269 2991 
Q 1406 3038 1543 3061 
Q 1681 3084 1819 3084 
Q 2600 3084 3056 2656 
Q 3513 2228 3513 1497 
Q 3513 744 3044 326 
Q 2575 -91 1722 -91 
Q 1428 -91 1123 -41 
Q 819 9 494 109 
L 494 744 
Q 775 591 1075 516 
Q 1375 441 1709 441 
Q 2250 441 2565 725 
Q 2881 1009 2881 1497 
Q 2881 1984 2565 2268 
Q 2250 2553 1709 2553 
Q 1456 2553 1204 2497 
Q 953 2441 691 2322 
L 691 4666 
z
" transform="scale(0.015625)"/>
        <path id="DejaVuSans-32" d="M 1228 531 
L 3431 531 
L 3431 0 
L 469 0 
L 469 531 
Q 828 903 1448 1529 
Q 2069 2156 2228 2338 
Q 2531 2678 2651 2914 
Q 2772 3150 2772 3378 
Q 2772 3750 2511 3984 
Q 2250 4219 1831 4219 
Q 1534 4219 1204 4116 
Q 875 4013 500 3803 
L 500 4441 
Q 881 4594 1212 4672 
Q 1544 4750 1819 4750 
Q 2544 4750 2975 4387 
Q 3406 4025 3406 3419 
Q 3406 3131 3298 2873 
Q 3191 2616 2906 2266 
Q 2828 2175 2409 1742 
Q 1991 1309 1228 531 
z
" transform="scale(0.015625)"/>
       </defs>
       <use xlink:href="#DejaVuSans-35"/>
       <use xlink:href="#DejaVuSans-31" transform="translate(63.623047 0)"/>
       <use xlink:href="#DejaVuSans-32" transform="translate(127.246094 0)"/>
      </g>
     </g>
    </g>
    <g id="xtick_3">
     <g id="line2d_5">
      <path d="M 212.328729 371.32 
L 212.328729 32.64 
" clip-path="url(#p461f930700)" style="fill: none; stroke: #b0b0b0; stroke-width: 0.8; stroke-linecap: square"/>
     </g>
     <g id="line2d_6">
      <g>
       <use xlink:href="#m28230a608e" x="212.328729" y="371.32" style="stroke: #000000; stroke-width: 0.8"/>
      </g>
     </g>
     <g id="text_3">
      <!-- 1024 -->
      <g transform="translate(186.878729 393.516875) scale(0.2 -0.2)">
       <defs>
        <path id="DejaVuSans-30" d="M 2034 4250 
Q 1547 4250 1301 3770 
Q 1056 3291 1056 2328 
Q 1056 1369 1301 889 
Q 1547 409 2034 409 
Q 2525 409 2770 889 
Q 3016 1369 3016 2328 
Q 3016 3291 2770 3770 
Q 2525 4250 2034 4250 
z
M 2034 4750 
Q 2819 4750 3233 4129 
Q 3647 3509 3647 2328 
Q 3647 1150 3233 529 
Q 2819 -91 2034 -91 
Q 1250 -91 836 529 
Q 422 1150 422 2328 
Q 422 3509 836 4129 
Q 1250 4750 2034 4750 
z
" transform="scale(0.015625)"/>
        <path id="DejaVuSans-34" d="M 2419 4116 
L 825 1625 
L 2419 1625 
L 2419 4116 
z
M 2253 4666 
L 3047 4666 
L 3047 1625 
L 3713 1625 
L 3713 1100 
L 3047 1100 
L 3047 0 
L 2419 0 
L 2419 1100 
L 313 1100 
L 313 1709 
L 2253 4666 
z
" transform="scale(0.015625)"/>
       </defs>
       <use xlink:href="#DejaVuSans-31"/>
       <use xlink:href="#DejaVuSans-30" transform="translate(63.623047 0)"/>
       <use xlink:href="#DejaVuSans-32" transform="translate(127.246094 0)"/>
       <use xlink:href="#DejaVuSans-34" transform="translate(190.869141 0)"/>
      </g>
     </g>
    </g>
    <g id="xtick_4">
     <g id="line2d_7">
      <path d="M 345.477486 371.32 
L 345.477486 32.64 
" clip-path="url(#p461f930700)" style="fill: none; stroke: #b0b0b0; stroke-width: 0.8; stroke-linecap: square"/>
     </g>
     <g id="line2d_8">
      <g>
       <use xlink:href="#m28230a608e" x="345.477486" y="371.32" style="stroke: #000000; stroke-width: 0.8"/>
      </g>
     </g>
     <g id="text_4">
      <!-- 2048 -->
      <g transform="translate(320.027486 393.516875) scale(0.2 -0.2)">
       <defs>
        <path id="DejaVuSans-38" d="M 2034 2216 
Q 1584 2216 1326 1975 
Q 1069 1734 1069 1313 
Q 1069 891 1326 650 
Q 1584 409 2034 409 
Q 2484 409 2743 651 
Q 3003 894 3003 1313 
Q 3003 1734 2745 1975 
Q 2488 2216 2034 2216 
z
M 1403 2484 
Q 997 2584 770 2862 
Q 544 3141 544 3541 
Q 544 4100 942 4425 
Q 1341 4750 2034 4750 
Q 2731 4750 3128 4425 
Q 3525 4100 3525 3541 
Q 3525 3141 3298 2862 
Q 3072 2584 2669 2484 
Q 3125 2378 3379 2068 
Q 3634 1759 3634 1313 
Q 3634 634 3220 271 
Q 2806 -91 2034 -91 
Q 1263 -91 848 271 
Q 434 634 434 1313 
Q 434 1759 690 2068 
Q 947 2378 1403 2484 
z
M 1172 3481 
Q 1172 3119 1398 2916 
Q 1625 2713 2034 2713 
Q 2441 2713 2670 2916 
Q 2900 3119 2900 3481 
Q 2900 3844 2670 4047 
Q 2441 4250 2034 4250 
Q 1625 4250 1398 4047 
Q 1172 3844 1172 3481 
z
" transform="scale(0.015625)"/>
       </defs>
       <use xlink:href="#DejaVuSans-32"/>
       <use xlink:href="#DejaVuSans-30" transform="translate(63.623047 0)"/>
       <use xlink:href="#DejaVuSans-34" transform="translate(127.246094 0)"/>
       <use xlink:href="#DejaVuSans-38" transform="translate(190.869141 0)"/>
      </g>
     </g>
    </g>
    <g id="xtick_5">
     <g id="line2d_9">
      <path d="M 611.775 371.32 
L 611.775 32.64 
" clip-path="url(#p461f930700)" style="fill: none; stroke: #b0b0b0; stroke-width: 0.8; stroke-linecap: square"/>
     </g>
     <g id="line2d_10">
      <g>
       <use xlink:href="#m28230a608e" x="611.775" y="371.32" style="stroke: #000000; stroke-width: 0.8"/>
      </g>
     </g>
     <g id="text_5">
      <!-- 4096 -->
      <g transform="translate(586.325 393.516875) scale(0.2 -0.2)">
       <defs>
        <path id="DejaVuSans-39" d="M 703 97 
L 703 672 
Q 941 559 1184 500 
Q 1428 441 1663 441 
Q 2288 441 2617 861 
Q 2947 1281 2994 2138 
Q 2813 1869 2534 1725 
Q 2256 1581 1919 1581 
Q 1219 1581 811 2004 
Q 403 2428 403 3163 
Q 403 3881 828 4315 
Q 1253 4750 1959 4750 
Q 2769 4750 3195 4129 
Q 3622 3509 3622 2328 
Q 3622 1225 3098 567 
Q 2575 -91 1691 -91 
Q 1453 -91 1209 -44 
Q 966 3 703 97 
z
M 1959 2075 
Q 2384 2075 2632 2365 
Q 2881 2656 2881 3163 
Q 2881 3666 2632 3958 
Q 2384 4250 1959 4250 
Q 1534 4250 1286 3958 
Q 1038 3666 1038 3163 
Q 1038 2656 1286 2365 
Q 1534 2075 1959 2075 
z
" transform="scale(0.015625)"/>
        <path id="DejaVuSans-36" d="M 2113 2584 
Q 1688 2584 1439 2293 
Q 1191 2003 1191 1497 
Q 1191 994 1439 701 
Q 1688 409 2113 409 
Q 2538 409 2786 701 
Q 3034 994 3034 1497 
Q 3034 2003 2786 2293 
Q 2538 2584 2113 2584 
z
M 3366 4563 
L 3366 3988 
Q 3128 4100 2886 4159 
Q 2644 4219 2406 4219 
Q 1781 4219 1451 3797 
Q 1122 3375 1075 2522 
Q 1259 2794 1537 2939 
Q 1816 3084 2150 3084 
Q 2853 3084 3261 2657 
Q 3669 2231 3669 1497 
Q 3669 778 3244 343 
Q 2819 -91 2113 -91 
Q 1303 -91 875 529 
Q 447 1150 447 2328 
Q 447 3434 972 4092 
Q 1497 4750 2381 4750 
Q 2619 4750 2861 4703 
Q 3103 4656 3366 4563 
z
" transform="scale(0.015625)"/>
       </defs>
       <use xlink:href="#DejaVuSans-34"/>
       <use xlink:href="#DejaVuSans-30" transform="translate(63.623047 0)"/>
       <use xlink:href="#DejaVuSans-39" transform="translate(127.246094 0)"/>
       <use xlink:href="#DejaVuSans-36" transform="translate(190.869141 0)"/>
      </g>
     </g>
    </g>
    <g id="text_6">
     <!-- Context Length -->
     <g transform="translate(268.694062 416.873125) scale(0.2 -0.2)">
      <defs>
       <path id="DejaVuSans-43" d="M 4122 4306 
L 4122 3641 
Q 3803 3938 3442 4084 
Q 3081 4231 2675 4231 
Q 1875 4231 1450 3742 
Q 1025 3253 1025 2328 
Q 1025 1406 1450 917 
Q 1875 428 2675 428 
Q 3081 428 3442 575 
Q 3803 722 4122 1019 
L 4122 359 
Q 3791 134 3420 21 
Q 3050 -91 2638 -91 
Q 1578 -91 968 557 
Q 359 1206 359 2328 
Q 359 3453 968 4101 
Q 1578 4750 2638 4750 
Q 3056 4750 3426 4639 
Q 3797 4528 4122 4306 
z
" transform="scale(0.015625)"/>
       <path id="DejaVuSans-6f" d="M 1959 3097 
Q 1497 3097 1228 2736 
Q 959 2375 959 1747 
Q 959 1119 1226 758 
Q 1494 397 1959 397 
Q 2419 397 2687 759 
Q 2956 1122 2956 1747 
Q 2956 2369 2687 2733 
Q 2419 3097 1959 3097 
z
M 1959 3584 
Q 2709 3584 3137 3096 
Q 3566 2609 3566 1747 
Q 3566 888 3137 398 
Q 2709 -91 1959 -91 
Q 1206 -91 779 398 
Q 353 888 353 1747 
Q 353 2609 779 3096 
Q 1206 3584 1959 3584 
z
" transform="scale(0.015625)"/>
       <path id="DejaVuSans-6e" d="M 3513 2113 
L 3513 0 
L 2938 0 
L 2938 2094 
Q 2938 2591 2744 2837 
Q 2550 3084 2163 3084 
Q 1697 3084 1428 2787 
Q 1159 2491 1159 1978 
L 1159 0 
L 581 0 
L 581 3500 
L 1159 3500 
L 1159 2956 
Q 1366 3272 1645 3428 
Q 1925 3584 2291 3584 
Q 2894 3584 3203 3211 
Q 3513 2838 3513 2113 
z
" transform="scale(0.015625)"/>
       <path id="DejaVuSans-74" d="M 1172 4494 
L 1172 3500 
L 2356 3500 
L 2356 3053 
L 1172 3053 
L 1172 1153 
Q 1172 725 1289 603 
Q 1406 481 1766 481 
L 2356 481 
L 2356 0 
L 1766 0 
Q 1100 0 847 248 
Q 594 497 594 1153 
L 594 3053 
L 172 3053 
L 172 3500 
L 594 3500 
L 594 4494 
L 1172 4494 
z
" transform="scale(0.015625)"/>
       <path id="DejaVuSans-65" d="M 3597 1894 
L 3597 1613 
L 953 1613 
Q 991 1019 1311 708 
Q 1631 397 2203 397 
Q 2534 397 2845 478 
Q 3156 559 3463 722 
L 3463 178 
Q 3153 47 2828 -22 
Q 2503 -91 2169 -91 
Q 1331 -91 842 396 
Q 353 884 353 1716 
Q 353 2575 817 3079 
Q 1281 3584 2069 3584 
Q 2775 3584 3186 3129 
Q 3597 2675 3597 1894 
z
M 3022 2063 
Q 3016 2534 2758 2815 
Q 2500 3097 2075 3097 
Q 1594 3097 1305 2825 
Q 1016 2553 972 2059 
L 3022 2063 
z
" transform="scale(0.015625)"/>
       <path id="DejaVuSans-78" d="M 3513 3500 
L 2247 1797 
L 3578 0 
L 2900 0 
L 1881 1375 
L 863 0 
L 184 0 
L 1544 1831 
L 300 3500 
L 978 3500 
L 1906 2253 
L 2834 3500 
L 3513 3500 
z
" transform="scale(0.015625)"/>
       <path id="DejaVuSans-20" transform="scale(0.015625)"/>
       <path id="DejaVuSans-4c" d="M 628 4666 
L 1259 4666 
L 1259 531 
L 3531 531 
L 3531 0 
L 628 0 
L 628 4666 
z
" transform="scale(0.015625)"/>
       <path id="DejaVuSans-67" d="M 2906 1791 
Q 2906 2416 2648 2759 
Q 2391 3103 1925 3103 
Q 1463 3103 1205 2759 
Q 947 2416 947 1791 
Q 947 1169 1205 825 
Q 1463 481 1925 481 
Q 2391 481 2648 825 
Q 2906 1169 2906 1791 
z
M 3481 434 
Q 3481 -459 3084 -895 
Q 2688 -1331 1869 -1331 
Q 1566 -1331 1297 -1286 
Q 1028 -1241 775 -1147 
L 775 -588 
Q 1028 -725 1275 -790 
Q 1522 -856 1778 -856 
Q 2344 -856 2625 -561 
Q 2906 -266 2906 331 
L 2906 616 
Q 2728 306 2450 153 
Q 2172 0 1784 0 
Q 1141 0 747 490 
Q 353 981 353 1791 
Q 353 2603 747 3093 
Q 1141 3584 1784 3584 
Q 2172 3584 2450 3431 
Q 2728 3278 2906 2969 
L 2906 3500 
L 3481 3500 
L 3481 434 
z
" transform="scale(0.015625)"/>
       <path id="DejaVuSans-68" d="M 3513 2113 
L 3513 0 
L 2938 0 
L 2938 2094 
Q 2938 2591 2744 2837 
Q 2550 3084 2163 3084 
Q 1697 3084 1428 2787 
Q 1159 2491 1159 1978 
L 1159 0 
L 581 0 
L 581 4863 
L 1159 4863 
L 1159 2956 
Q 1366 3272 1645 3428 
Q 1925 3584 2291 3584 
Q 2894 3584 3203 3211 
Q 3513 2838 3513 2113 
z
" transform="scale(0.015625)"/>
      </defs>
      <use xlink:href="#DejaVuSans-43"/>
      <use xlink:href="#DejaVuSans-6f" transform="translate(69.824219 0)"/>
      <use xlink:href="#DejaVuSans-6e" transform="translate(131.005859 0)"/>
      <use xlink:href="#DejaVuSans-74" transform="translate(194.384766 0)"/>
      <use xlink:href="#DejaVuSans-65" transform="translate(233.59375 0)"/>
      <use xlink:href="#DejaVuSans-78" transform="translate(293.367188 0)"/>
      <use xlink:href="#DejaVuSans-74" transform="translate(352.546875 0)"/>
      <use xlink:href="#DejaVuSans-20" transform="translate(391.755859 0)"/>
      <use xlink:href="#DejaVuSans-4c" transform="translate(423.542969 0)"/>
      <use xlink:href="#DejaVuSans-65" transform="translate(477.505859 0)"/>
      <use xlink:href="#DejaVuSans-6e" transform="translate(539.029297 0)"/>
      <use xlink:href="#DejaVuSans-67" transform="translate(602.408203 0)"/>
      <use xlink:href="#DejaVuSans-74" transform="translate(665.884766 0)"/>
      <use xlink:href="#DejaVuSans-68" transform="translate(705.09375 0)"/>
     </g>
    </g>
   </g>
   <g id="matplotlib.axis_2">
    <g id="ytick_1">
     <g id="line2d_11">
      <path d="M 79.31 355.925455 
L 611.775 355.925455 
" clip-path="url(#p461f930700)" style="fill: none; stroke: #b0b0b0; stroke-width: 0.8; stroke-linecap: square"/>
     </g>
     <g id="line2d_12">
      <defs>
       <path id="m11a40765c2" d="M 0 0 
L -3.5 0 
" style="stroke: #000000; stroke-width: 0.8"/>
      </defs>
      <g>
       <use xlink:href="#m11a40765c2" x="79.31" y="355.925455" style="stroke: #000000; stroke-width: 0.8"/>
      </g>
     </g>
     <g id="text_7">
      <!-- 0 -->
      <g transform="translate(59.585 363.523892) scale(0.2 -0.2)">
       <use xlink:href="#DejaVuSans-30"/>
      </g>
     </g>
    </g>
    <g id="ytick_2">
     <g id="line2d_13">
      <path d="M 79.31 294.347273 
L 611.775 294.347273 
" clip-path="url(#p461f930700)" style="fill: none; stroke: #b0b0b0; stroke-width: 0.8; stroke-linecap: square"/>
     </g>
     <g id="line2d_14">
      <g>
       <use xlink:href="#m11a40765c2" x="79.31" y="294.347273" style="stroke: #000000; stroke-width: 0.8"/>
      </g>
     </g>
     <g id="text_8">
      <!-- 20 -->
      <g transform="translate(46.86 301.94571) scale(0.2 -0.2)">
       <use xlink:href="#DejaVuSans-32"/>
       <use xlink:href="#DejaVuSans-30" transform="translate(63.623047 0)"/>
      </g>
     </g>
    </g>
    <g id="ytick_3">
     <g id="line2d_15">
      <path d="M 79.31 232.769091 
L 611.775 232.769091 
" clip-path="url(#p461f930700)" style="fill: none; stroke: #b0b0b0; stroke-width: 0.8; stroke-linecap: square"/>
     </g>
     <g id="line2d_16">
      <g>
       <use xlink:href="#m11a40765c2" x="79.31" y="232.769091" style="stroke: #000000; stroke-width: 0.8"/>
      </g>
     </g>
     <g id="text_9">
      <!-- 40 -->
      <g transform="translate(46.86 240.367528) scale(0.2 -0.2)">
       <use xlink:href="#DejaVuSans-34"/>
       <use xlink:href="#DejaVuSans-30" transform="translate(63.623047 0)"/>
      </g>
     </g>
    </g>
    <g id="ytick_4">
     <g id="line2d_17">
      <path d="M 79.31 171.190909 
L 611.775 171.190909 
" clip-path="url(#p461f930700)" style="fill: none; stroke: #b0b0b0; stroke-width: 0.8; stroke-linecap: square"/>
     </g>
     <g id="line2d_18">
      <g>
       <use xlink:href="#m11a40765c2" x="79.31" y="171.190909" style="stroke: #000000; stroke-width: 0.8"/>
      </g>
     </g>
     <g id="text_10">
      <!-- 60 -->
      <g transform="translate(46.86 178.789347) scale(0.2 -0.2)">
       <use xlink:href="#DejaVuSans-36"/>
       <use xlink:href="#DejaVuSans-30" transform="translate(63.623047 0)"/>
      </g>
     </g>
    </g>
    <g id="ytick_5">
     <g id="line2d_19">
      <path d="M 79.31 109.612727 
L 611.775 109.612727 
" clip-path="url(#p461f930700)" style="fill: none; stroke: #b0b0b0; stroke-width: 0.8; stroke-linecap: square"/>
     </g>
     <g id="line2d_20">
      <g>
       <use xlink:href="#m11a40765c2" x="79.31" y="109.612727" style="stroke: #000000; stroke-width: 0.8"/>
      </g>
     </g>
     <g id="text_11">
      <!-- 80 -->
      <g transform="translate(46.86 117.211165) scale(0.2 -0.2)">
       <use xlink:href="#DejaVuSans-38"/>
       <use xlink:href="#DejaVuSans-30" transform="translate(63.623047 0)"/>
      </g>
     </g>
    </g>
    <g id="ytick_6">
     <g id="line2d_21">
      <path d="M 79.31 48.034545 
L 611.775 48.034545 
" clip-path="url(#p461f930700)" style="fill: none; stroke: #b0b0b0; stroke-width: 0.8; stroke-linecap: square"/>
     </g>
     <g id="line2d_22">
      <g>
       <use xlink:href="#m11a40765c2" x="79.31" y="48.034545" style="stroke: #000000; stroke-width: 0.8"/>
      </g>
     </g>
     <g id="text_12">
      <!-- 100 -->
      <g transform="translate(34.135 55.632983) scale(0.2 -0.2)">
       <use xlink:href="#DejaVuSans-31"/>
       <use xlink:href="#DejaVuSans-30" transform="translate(63.623047 0)"/>
       <use xlink:href="#DejaVuSans-30" transform="translate(127.246094 0)"/>
      </g>
     </g>
    </g>
    <g id="text_13">
     <!-- Validation Accuracy -->
     <g transform="translate(25.975625 300.195625) rotate(-90) scale(0.2 -0.2)">
      <defs>
       <path id="DejaVuSans-56" d="M 1831 0 
L 50 4666 
L 709 4666 
L 2188 738 
L 3669 4666 
L 4325 4666 
L 2547 0 
L 1831 0 
z
" transform="scale(0.015625)"/>
       <path id="DejaVuSans-61" d="M 2194 1759 
Q 1497 1759 1228 1600 
Q 959 1441 959 1056 
Q 959 750 1161 570 
Q 1363 391 1709 391 
Q 2188 391 2477 730 
Q 2766 1069 2766 1631 
L 2766 1759 
L 2194 1759 
z
M 3341 1997 
L 3341 0 
L 2766 0 
L 2766 531 
Q 2569 213 2275 61 
Q 1981 -91 1556 -91 
Q 1019 -91 701 211 
Q 384 513 384 1019 
Q 384 1609 779 1909 
Q 1175 2209 1959 2209 
L 2766 2209 
L 2766 2266 
Q 2766 2663 2505 2880 
Q 2244 3097 1772 3097 
Q 1472 3097 1187 3025 
Q 903 2953 641 2809 
L 641 3341 
Q 956 3463 1253 3523 
Q 1550 3584 1831 3584 
Q 2591 3584 2966 3190 
Q 3341 2797 3341 1997 
z
" transform="scale(0.015625)"/>
       <path id="DejaVuSans-6c" d="M 603 4863 
L 1178 4863 
L 1178 0 
L 603 0 
L 603 4863 
z
" transform="scale(0.015625)"/>
       <path id="DejaVuSans-69" d="M 603 3500 
L 1178 3500 
L 1178 0 
L 603 0 
L 603 3500 
z
M 603 4863 
L 1178 4863 
L 1178 4134 
L 603 4134 
L 603 4863 
z
" transform="scale(0.015625)"/>
       <path id="DejaVuSans-64" d="M 2906 2969 
L 2906 4863 
L 3481 4863 
L 3481 0 
L 2906 0 
L 2906 525 
Q 2725 213 2448 61 
Q 2172 -91 1784 -91 
Q 1150 -91 751 415 
Q 353 922 353 1747 
Q 353 2572 751 3078 
Q 1150 3584 1784 3584 
Q 2172 3584 2448 3432 
Q 2725 3281 2906 2969 
z
M 947 1747 
Q 947 1113 1208 752 
Q 1469 391 1925 391 
Q 2381 391 2643 752 
Q 2906 1113 2906 1747 
Q 2906 2381 2643 2742 
Q 2381 3103 1925 3103 
Q 1469 3103 1208 2742 
Q 947 2381 947 1747 
z
" transform="scale(0.015625)"/>
       <path id="DejaVuSans-41" d="M 2188 4044 
L 1331 1722 
L 3047 1722 
L 2188 4044 
z
M 1831 4666 
L 2547 4666 
L 4325 0 
L 3669 0 
L 3244 1197 
L 1141 1197 
L 716 0 
L 50 0 
L 1831 4666 
z
" transform="scale(0.015625)"/>
       <path id="DejaVuSans-63" d="M 3122 3366 
L 3122 2828 
Q 2878 2963 2633 3030 
Q 2388 3097 2138 3097 
Q 1578 3097 1268 2742 
Q 959 2388 959 1747 
Q 959 1106 1268 751 
Q 1578 397 2138 397 
Q 2388 397 2633 464 
Q 2878 531 3122 666 
L 3122 134 
Q 2881 22 2623 -34 
Q 2366 -91 2075 -91 
Q 1284 -91 818 406 
Q 353 903 353 1747 
Q 353 2603 823 3093 
Q 1294 3584 2113 3584 
Q 2378 3584 2631 3529 
Q 2884 3475 3122 3366 
z
" transform="scale(0.015625)"/>
       <path id="DejaVuSans-75" d="M 544 1381 
L 544 3500 
L 1119 3500 
L 1119 1403 
Q 1119 906 1312 657 
Q 1506 409 1894 409 
Q 2359 409 2629 706 
Q 2900 1003 2900 1516 
L 2900 3500 
L 3475 3500 
L 3475 0 
L 2900 0 
L 2900 538 
Q 2691 219 2414 64 
Q 2138 -91 1772 -91 
Q 1169 -91 856 284 
Q 544 659 544 1381 
z
M 1991 3584 
L 1991 3584 
z
" transform="scale(0.015625)"/>
       <path id="DejaVuSans-72" d="M 2631 2963 
Q 2534 3019 2420 3045 
Q 2306 3072 2169 3072 
Q 1681 3072 1420 2755 
Q 1159 2438 1159 1844 
L 1159 0 
L 581 0 
L 581 3500 
L 1159 3500 
L 1159 2956 
Q 1341 3275 1631 3429 
Q 1922 3584 2338 3584 
Q 2397 3584 2469 3576 
Q 2541 3569 2628 3553 
L 2631 2963 
z
" transform="scale(0.015625)"/>
       <path id="DejaVuSans-79" d="M 2059 -325 
Q 1816 -950 1584 -1140 
Q 1353 -1331 966 -1331 
L 506 -1331 
L 506 -850 
L 844 -850 
Q 1081 -850 1212 -737 
Q 1344 -625 1503 -206 
L 1606 56 
L 191 3500 
L 800 3500 
L 1894 763 
L 2988 3500 
L 3597 3500 
L 2059 -325 
z
" transform="scale(0.015625)"/>
      </defs>
      <use xlink:href="#DejaVuSans-56"/>
      <use xlink:href="#DejaVuSans-61" transform="translate(60.658203 0)"/>
      <use xlink:href="#DejaVuSans-6c" transform="translate(121.9375 0)"/>
      <use xlink:href="#DejaVuSans-69" transform="translate(149.720703 0)"/>
      <use xlink:href="#DejaVuSans-64" transform="translate(177.503906 0)"/>
      <use xlink:href="#DejaVuSans-61" transform="translate(240.980469 0)"/>
      <use xlink:href="#DejaVuSans-74" transform="translate(302.259766 0)"/>
      <use xlink:href="#DejaVuSans-69" transform="translate(341.46875 0)"/>
      <use xlink:href="#DejaVuSans-6f" transform="translate(369.251953 0)"/>
      <use xlink:href="#DejaVuSans-6e" transform="translate(430.433594 0)"/>
      <use xlink:href="#DejaVuSans-20" transform="translate(493.8125 0)"/>
      <use xlink:href="#DejaVuSans-41" transform="translate(525.599609 0)"/>
      <use xlink:href="#DejaVuSans-63" transform="translate(592.257812 0)"/>
      <use xlink:href="#DejaVuSans-63" transform="translate(647.238281 0)"/>
      <use xlink:href="#DejaVuSans-75" transform="translate(702.21875 0)"/>
      <use xlink:href="#DejaVuSans-72" transform="translate(765.597656 0)"/>
      <use xlink:href="#DejaVuSans-61" transform="translate(806.710938 0)"/>
      <use xlink:href="#DejaVuSans-63" transform="translate(867.990234 0)"/>
      <use xlink:href="#DejaVuSans-79" transform="translate(922.970703 0)"/>
     </g>
    </g>
   </g>
   <g id="line2d_23">
    <path d="M 79.31 48.034545 
L 81.390449 48.034545 
L 82.430674 73.764752 
L 85.681376 260.487167 
L 86.981657 298.039332 
L 87.891853 317.375934 
L 89.192134 335.096766 
L 89.842275 342.018259 
L 91.012527 347.328193 
L 93.873145 354.642313 
L 94.523286 355.06336 
L 95.303454 355.41704 
L 96.343679 355.617564 
L 97.383904 355.723878 
L 98.424128 355.925455 
L 611.775 355.925455 
L 611.775 355.925455 
" clip-path="url(#p461f930700)" style="fill: none; stroke: #1f77b4; stroke-width: 1.5; stroke-linecap: square"/>
   </g>
   <g id="line2d_24">
    <path d="M 79.31 48.034545 
L 278.643051 48.126123 
L 279.683276 48.342436 
L 319.341841 48.451909 
L 320.382066 48.650327 
L 328.703863 48.755063 
L 329.744088 48.958218 
L 330.784313 49.061901 
L 332.864762 49.574 
L 340.146335 49.672946 
L 341.186559 49.881891 
L 342.226784 49.979784 
L 343.267009 50.189782 
L 346.387683 50.286363 
L 347.427907 50.501989 
L 348.468132 50.603067 
L 349.508357 50.825384 
L 352.629031 50.96241 
L 353.669255 51.198107 
L 358.74035 51.389154 
L 359.910603 51.687813 
L 360.8208 51.822804 
L 361.861024 52.381222 
L 363.031277 52.519923 
L 364.071502 52.789071 
L 365.111726 52.92683 
L 366.151951 53.202668 
L 367.192176 53.345011 
L 369.402653 54.006188 
L 370.31285 54.147371 
L 371.353074 54.439935 
L 373.433524 54.667209 
L 374.473748 54.969809 
L 378.634647 55.384722 
L 379.8049 55.715608 
L 380.715096 55.876193 
L 381.885349 56.447103 
L 382.665518 56.904779 
L 385.91622 57.308146 
L 387.086473 57.664916 
L 387.996669 57.839081 
L 389.166922 58.203245 
L 389.94709 58.363092 
L 391.247371 59.172319 
L 392.287596 59.493718 
L 395.148214 59.950131 
L 396.188438 60.911566 
L 400.479365 61.569363 
L 401.649618 61.977897 
L 402.429786 62.150482 
L 403.730067 63.008307 
L 404.770292 63.369847 
L 407.63091 63.874019 
L 408.801162 64.628035 
L 411.791808 65.18043 
L 412.962061 65.951342 
L 415.172538 66.445031 
L 417.252988 67.540836 
L 419.333437 69.261593 
L 420.243634 70.127474 
L 421.413886 70.606261 
L 422.194055 70.799014 
L 423.364308 71.612164 
L 425.574785 72.16049 
L 426.61501 72.592278 
L 427.655234 72.90636 
L 429.865712 73.907811 
L 430.775908 74.200253 
L 431.816133 74.648766 
L 433.896582 75.211623 
L 434.936807 75.670173 
L 435.716976 75.900936 
L 436.7572 77.329669 
L 439.097706 77.979921 
L 440.13793 78.628878 
L 441.048127 79.296197 
L 442.21838 79.674725 
L 443.128576 80.267505 
L 444.298829 81.434471 
L 445.469082 82.205535 
L 446.24925 82.779805 
L 447.419503 83.171557 
L 448.589756 83.950556 
L 449.369924 84.534327 
L 452.620626 85.507296 
L 455.7413 87.390981 
L 456.651497 88.111087 
L 458.861974 88.834252 
L 460.032227 89.411821 
L 460.812396 89.720956 
L 461.85262 90.574543 
L 462.892845 90.96464 
L 465.363379 93.036349 
L 466.273575 93.478221 
L 467.3138 93.918192 
L 469.394249 95.087639 
L 470.174418 95.439485 
L 471.214642 96.602649 
L 472.514923 97.139263 
L 473.555148 97.683514 
L 474.595372 98.139533 
L 475.635597 98.905208 
L 477.586018 100.587655 
L 478.496215 101.017456 
L 479.666468 102.673816 
L 480.966748 103.755368 
L 481.876945 104.242132 
L 482.91717 104.71649 
L 483.697338 105.305817 
L 485.257675 107.535003 
L 485.777788 108.109827 
L 487.858237 108.923559 
L 489.02849 109.926362 
L 490.198742 110.465371 
L 492.019136 111.75957 
L 493.189388 113.41084 
L 494.359641 114.306213 
L 497.610343 117.635404 
L 498.780596 118.965302 
L 501.381158 121.600719 
L 502.55141 123.585262 
L 503.851691 124.634861 
L 504.891916 125.548762 
L 506.972365 127.162393 
L 508.01259 128.086329 
L 509.052814 128.964138 
L 509.832983 129.655002 
L 511.003236 130.246909 
L 511.913432 131.010152 
L 513.083685 132.379444 
L 514.253938 133.363887 
L 515.034106 134.266371 
L 516.074331 135.811094 
L 516.984527 136.523205 
L 518.15478 138.586895 
L 520.495286 140.214482 
L 522.445707 141.191711 
L 523.225875 141.80769 
L 524.396128 143.903039 
L 526.736634 145.811836 
L 527.906886 146.899478 
L 528.817083 147.720697 
L 529.987336 148.815735 
L 530.897532 149.640833 
L 531.807729 150.777033 
L 533.238038 152.970305 
L 535.188459 155.81173 
L 536.878824 158.496557 
L 538.959274 159.612501 
L 540.389582 161.029272 
L 541.039723 161.659183 
L 542.60006 164.111977 
L 544.290425 166.336289 
L 546.240846 167.99336 
L 547.411099 169.502037 
L 548.321295 170.378975 
L 549.36152 172.340212 
L 551.571998 174.310911 
L 552.482194 175.697182 
L 553.522419 177.926533 
L 554.8227 178.73879 
L 555.862924 179.719762 
L 557.033177 181.197247 
L 557.683317 182.05008 
L 558.723542 182.679861 
L 560.93402 185.348147 
L 562.494357 187.853385 
L 563.014469 188.734961 
L 564.704834 191.93863 
L 566.135143 194.263424 
L 568.215592 196.200024 
L 570.686126 199.65588 
L 572.376491 201.766503 
L 573.416716 203.438193 
L 574.45694 204.479025 
L 575.627193 206.025299 
L 576.407361 206.777784 
L 577.577614 208.698947 
L 578.617839 209.746844 
L 581.868541 214.431121 
L 583.038794 215.628942 
L 583.688934 216.472663 
L 584.989215 219.314972 
L 586.02944 220.70716 
L 586.939636 221.64935 
L 588.499973 223.812406 
L 590.190338 225.708843 
L 590.970507 226.248823 
L 592.140759 228.236488 
L 593.180984 229.309112 
L 594.221209 230.761392 
L 595.52149 231.729401 
L 596.561714 232.838554 
L 597.731967 234.458006 
L 598.90222 236.066815 
L 599.55236 236.714247 
L 600.332529 237.248517 
L 602.022894 239.674948 
L 602.93309 240.663481 
L 604.493427 242.188397 
L 605.923736 245.031965 
L 607.224017 246.873813 
L 607.874158 247.859547 
L 609.434495 250.540848 
L 609.954607 251.515497 
L 611.12486 253.820506 
L 611.775 254.847056 
L 611.775 254.847056 
" clip-path="url(#p461f930700)" style="fill: none; stroke: #ff7f0e; stroke-width: 1.5; stroke-linecap: square"/>
   </g>
   <g id="line2d_25">
    <path d="M 79.31 48.034545 
L 157.716934 48.110334 
L 158.887187 48.342436 
L 611.775 48.342436 
L 611.775 48.342436 
" clip-path="url(#p461f930700)" style="fill: none; stroke: #2ca02c; stroke-width: 1.5; stroke-linecap: square"/>
   </g>
   <g id="line2d_26">
    <path d="M 79.31 48.034545 
L 465.103322 48.108755 
L 466.273575 48.342436 
L 471.474698 48.451909 
L 472.514923 48.650327 
L 594.351237 48.736116 
L 595.391462 48.958218 
L 611.775 48.958218 
L 611.775 48.958218 
" clip-path="url(#p461f930700)" style="fill: none; stroke: #d62728; stroke-width: 1.5; stroke-linecap: square"/>
   </g>
   <g id="line2d_27">
    <path d="M 212.328729 371.32 
L 212.328729 32.64 
" clip-path="url(#p461f930700)" style="fill: none; stroke-dasharray: 7.4,3.2; stroke-dashoffset: 0; stroke: #000000; stroke-width: 2"/>
   </g>
   <g id="patch_3">
    <path d="M 79.31 371.32 
L 79.31 32.64 
" style="fill: none; stroke: #000000; stroke-width: 0.8; stroke-linejoin: miter; stroke-linecap: square"/>
   </g>
   <g id="patch_4">
    <path d="M 611.775 371.32 
L 611.775 32.64 
" style="fill: none; stroke: #000000; stroke-width: 0.8; stroke-linejoin: miter; stroke-linecap: square"/>
   </g>
   <g id="patch_5">
    <path d="M 79.31 371.32 
L 611.775 371.32 
" style="fill: none; stroke: #000000; stroke-width: 0.8; stroke-linejoin: miter; stroke-linecap: square"/>
   </g>
   <g id="patch_6">
    <path d="M 79.31 32.64 
L 611.775 32.64 
" style="fill: none; stroke: #000000; stroke-width: 0.8; stroke-linejoin: miter; stroke-linecap: square"/>
   </g>
   <g id="text_14">
    <!-- $S_3$ Validation Accuracy vs Context Length -->
    <g transform="translate(137.3425 26.64) scale(0.2 -0.2)">
     <defs>
      <path id="DejaVuSans-Oblique-53" d="M 3859 4513 
L 3738 3897 
Q 3422 4066 3111 4152 
Q 2800 4238 2509 4238 
Q 1944 4238 1609 3991 
Q 1275 3744 1275 3334 
Q 1275 3109 1398 2989 
Q 1522 2869 2034 2731 
L 2413 2638 
Q 3053 2472 3303 2217 
Q 3553 1963 3553 1503 
Q 3553 797 2998 353 
Q 2444 -91 1538 -91 
Q 1166 -91 791 -17 
Q 416 56 38 206 
L 166 856 
Q 513 641 861 531 
Q 1209 422 1556 422 
Q 2147 422 2503 684 
Q 2859 947 2859 1369 
Q 2859 1650 2717 1795 
Q 2575 1941 2106 2059 
L 1728 2156 
Q 1081 2325 845 2545 
Q 609 2766 609 3163 
Q 609 3859 1145 4304 
Q 1681 4750 2541 4750 
Q 2875 4750 3203 4690 
Q 3531 4631 3859 4513 
z
" transform="scale(0.015625)"/>
      <path id="DejaVuSans-33" d="M 2597 2516 
Q 3050 2419 3304 2112 
Q 3559 1806 3559 1356 
Q 3559 666 3084 287 
Q 2609 -91 1734 -91 
Q 1441 -91 1130 -33 
Q 819 25 488 141 
L 488 750 
Q 750 597 1062 519 
Q 1375 441 1716 441 
Q 2309 441 2620 675 
Q 2931 909 2931 1356 
Q 2931 1769 2642 2001 
Q 2353 2234 1838 2234 
L 1294 2234 
L 1294 2753 
L 1863 2753 
Q 2328 2753 2575 2939 
Q 2822 3125 2822 3475 
Q 2822 3834 2567 4026 
Q 2313 4219 1838 4219 
Q 1578 4219 1281 4162 
Q 984 4106 628 3988 
L 628 4550 
Q 988 4650 1302 4700 
Q 1616 4750 1894 4750 
Q 2613 4750 3031 4423 
Q 3450 4097 3450 3541 
Q 3450 3153 3228 2886 
Q 3006 2619 2597 2516 
z
" transform="scale(0.015625)"/>
      <path id="DejaVuSans-76" d="M 191 3500 
L 800 3500 
L 1894 563 
L 2988 3500 
L 3597 3500 
L 2284 0 
L 1503 0 
L 191 3500 
z
" transform="scale(0.015625)"/>
      <path id="DejaVuSans-73" d="M 2834 3397 
L 2834 2853 
Q 2591 2978 2328 3040 
Q 2066 3103 1784 3103 
Q 1356 3103 1142 2972 
Q 928 2841 928 2578 
Q 928 2378 1081 2264 
Q 1234 2150 1697 2047 
L 1894 2003 
Q 2506 1872 2764 1633 
Q 3022 1394 3022 966 
Q 3022 478 2636 193 
Q 2250 -91 1575 -91 
Q 1294 -91 989 -36 
Q 684 19 347 128 
L 347 722 
Q 666 556 975 473 
Q 1284 391 1588 391 
Q 1994 391 2212 530 
Q 2431 669 2431 922 
Q 2431 1156 2273 1281 
Q 2116 1406 1581 1522 
L 1381 1569 
Q 847 1681 609 1914 
Q 372 2147 372 2553 
Q 372 3047 722 3315 
Q 1072 3584 1716 3584 
Q 2034 3584 2315 3537 
Q 2597 3491 2834 3397 
z
" transform="scale(0.015625)"/>
     </defs>
     <use xlink:href="#DejaVuSans-Oblique-53" transform="translate(0 0.015625)"/>
     <use xlink:href="#DejaVuSans-33" transform="translate(63.476562 -16.390625) scale(0.7)"/>
     <use xlink:href="#DejaVuSans-20" transform="translate(110.74707 0.015625)"/>
     <use xlink:href="#DejaVuSans-56" transform="translate(142.53418 0.015625)"/>
     <use xlink:href="#DejaVuSans-61" transform="translate(210.942383 0.015625)"/>
     <use xlink:href="#DejaVuSans-6c" transform="translate(272.22168 0.015625)"/>
     <use xlink:href="#DejaVuSans-69" transform="translate(300.004883 0.015625)"/>
     <use xlink:href="#DejaVuSans-64" transform="translate(327.788086 0.015625)"/>
     <use xlink:href="#DejaVuSans-61" transform="translate(391.264648 0.015625)"/>
     <use xlink:href="#DejaVuSans-74" transform="translate(452.543945 0.015625)"/>
     <use xlink:href="#DejaVuSans-69" transform="translate(491.75293 0.015625)"/>
     <use xlink:href="#DejaVuSans-6f" transform="translate(519.536133 0.015625)"/>
     <use xlink:href="#DejaVuSans-6e" transform="translate(580.717773 0.015625)"/>
     <use xlink:href="#DejaVuSans-20" transform="translate(644.09668 0.015625)"/>
     <use xlink:href="#DejaVuSans-41" transform="translate(675.883789 0.015625)"/>
     <use xlink:href="#DejaVuSans-63" transform="translate(744.291992 0.015625)"/>
     <use xlink:href="#DejaVuSans-63" transform="translate(799.272461 0.015625)"/>
     <use xlink:href="#DejaVuSans-75" transform="translate(854.25293 0.015625)"/>
     <use xlink:href="#DejaVuSans-72" transform="translate(917.631836 0.015625)"/>
     <use xlink:href="#DejaVuSans-61" transform="translate(958.745117 0.015625)"/>
     <use xlink:href="#DejaVuSans-63" transform="translate(1020.024414 0.015625)"/>
     <use xlink:href="#DejaVuSans-79" transform="translate(1075.004883 0.015625)"/>
     <use xlink:href="#DejaVuSans-20" transform="translate(1134.18457 0.015625)"/>
     <use xlink:href="#DejaVuSans-76" transform="translate(1165.97168 0.015625)"/>
     <use xlink:href="#DejaVuSans-73" transform="translate(1225.151367 0.015625)"/>
     <use xlink:href="#DejaVuSans-20" transform="translate(1277.250977 0.015625)"/>
     <use xlink:href="#DejaVuSans-43" transform="translate(1309.038086 0.015625)"/>
     <use xlink:href="#DejaVuSans-6f" transform="translate(1378.862305 0.015625)"/>
     <use xlink:href="#DejaVuSans-6e" transform="translate(1440.043945 0.015625)"/>
     <use xlink:href="#DejaVuSans-74" transform="translate(1503.422852 0.015625)"/>
     <use xlink:href="#DejaVuSans-65" transform="translate(1542.631836 0.015625)"/>
     <use xlink:href="#DejaVuSans-78" transform="translate(1604.155273 0.015625)"/>
     <use xlink:href="#DejaVuSans-74" transform="translate(1663.334961 0.015625)"/>
     <use xlink:href="#DejaVuSans-20" transform="translate(1702.543945 0.015625)"/>
     <use xlink:href="#DejaVuSans-4c" transform="translate(1734.331055 0.015625)"/>
     <use xlink:href="#DejaVuSans-65" transform="translate(1790.043945 0.015625)"/>
     <use xlink:href="#DejaVuSans-6e" transform="translate(1851.567383 0.015625)"/>
     <use xlink:href="#DejaVuSans-67" transform="translate(1914.946289 0.015625)"/>
     <use xlink:href="#DejaVuSans-74" transform="translate(1978.422852 0.015625)"/>
     <use xlink:href="#DejaVuSans-68" transform="translate(2017.631836 0.015625)"/>
    </g>
   </g>
   <g id="legend_1">
    <g id="patch_7">
     <path d="M 263.647187 232.83625 
L 427.437812 232.83625 
Q 429.437812 232.83625 429.437812 230.83625 
L 429.437812 173.12375 
Q 429.437812 171.12375 427.437812 171.12375 
L 263.647187 171.12375 
Q 261.647187 171.12375 261.647187 173.12375 
L 261.647187 230.83625 
Q 261.647187 232.83625 263.647187 232.83625 
z
" style="fill: #ffffff; opacity: 0.8; stroke: #cccccc; stroke-linejoin: miter"/>
    </g>
    <g id="line2d_28">
     <path d="M 265.647187 179.222188 
L 275.647187 179.222188 
L 285.647187 179.222188 
" style="fill: none; stroke: #1f77b4; stroke-width: 1.5; stroke-linecap: square"/>
    </g>
    <g id="text_15">
     <!-- Gated DeltaNet [-1, 1] -->
     <g transform="translate(293.647187 182.722188) scale(0.1 -0.1)">
      <defs>
       <path id="DejaVuSans-47" d="M 3809 666 
L 3809 1919 
L 2778 1919 
L 2778 2438 
L 4434 2438 
L 4434 434 
Q 4069 175 3628 42 
Q 3188 -91 2688 -91 
Q 1594 -91 976 548 
Q 359 1188 359 2328 
Q 359 3472 976 4111 
Q 1594 4750 2688 4750 
Q 3144 4750 3555 4637 
Q 3966 4525 4313 4306 
L 4313 3634 
Q 3963 3931 3569 4081 
Q 3175 4231 2741 4231 
Q 1884 4231 1454 3753 
Q 1025 3275 1025 2328 
Q 1025 1384 1454 906 
Q 1884 428 2741 428 
Q 3075 428 3337 486 
Q 3600 544 3809 666 
z
" transform="scale(0.015625)"/>
       <path id="DejaVuSans-44" d="M 1259 4147 
L 1259 519 
L 2022 519 
Q 2988 519 3436 956 
Q 3884 1394 3884 2338 
Q 3884 3275 3436 3711 
Q 2988 4147 2022 4147 
L 1259 4147 
z
M 628 4666 
L 1925 4666 
Q 3281 4666 3915 4102 
Q 4550 3538 4550 2338 
Q 4550 1131 3912 565 
Q 3275 0 1925 0 
L 628 0 
L 628 4666 
z
" transform="scale(0.015625)"/>
       <path id="DejaVuSans-4e" d="M 628 4666 
L 1478 4666 
L 3547 763 
L 3547 4666 
L 4159 4666 
L 4159 0 
L 3309 0 
L 1241 3903 
L 1241 0 
L 628 0 
L 628 4666 
z
" transform="scale(0.015625)"/>
       <path id="DejaVuSans-5b" d="M 550 4863 
L 1875 4863 
L 1875 4416 
L 1125 4416 
L 1125 -397 
L 1875 -397 
L 1875 -844 
L 550 -844 
L 550 4863 
z
" transform="scale(0.015625)"/>
       <path id="DejaVuSans-2d" d="M 313 2009 
L 1997 2009 
L 1997 1497 
L 313 1497 
L 313 2009 
z
" transform="scale(0.015625)"/>
       <path id="DejaVuSans-2c" d="M 750 794 
L 1409 794 
L 1409 256 
L 897 -744 
L 494 -744 
L 750 256 
L 750 794 
z
" transform="scale(0.015625)"/>
       <path id="DejaVuSans-5d" d="M 1947 4863 
L 1947 -844 
L 622 -844 
L 622 -397 
L 1369 -397 
L 1369 4416 
L 622 4416 
L 622 4863 
L 1947 4863 
z
" transform="scale(0.015625)"/>
      </defs>
      <use xlink:href="#DejaVuSans-47"/>
      <use xlink:href="#DejaVuSans-61" transform="translate(77.490234 0)"/>
      <use xlink:href="#DejaVuSans-74" transform="translate(138.769531 0)"/>
      <use xlink:href="#DejaVuSans-65" transform="translate(177.978516 0)"/>
      <use xlink:href="#DejaVuSans-64" transform="translate(239.501953 0)"/>
      <use xlink:href="#DejaVuSans-20" transform="translate(302.978516 0)"/>
      <use xlink:href="#DejaVuSans-44" transform="translate(334.765625 0)"/>
      <use xlink:href="#DejaVuSans-65" transform="translate(411.767578 0)"/>
      <use xlink:href="#DejaVuSans-6c" transform="translate(473.291016 0)"/>
      <use xlink:href="#DejaVuSans-74" transform="translate(501.074219 0)"/>
      <use xlink:href="#DejaVuSans-61" transform="translate(540.283203 0)"/>
      <use xlink:href="#DejaVuSans-4e" transform="translate(601.5625 0)"/>
      <use xlink:href="#DejaVuSans-65" transform="translate(676.367188 0)"/>
      <use xlink:href="#DejaVuSans-74" transform="translate(737.890625 0)"/>
      <use xlink:href="#DejaVuSans-20" transform="translate(777.099609 0)"/>
      <use xlink:href="#DejaVuSans-5b" transform="translate(808.886719 0)"/>
      <use xlink:href="#DejaVuSans-2d" transform="translate(847.900391 0)"/>
      <use xlink:href="#DejaVuSans-31" transform="translate(883.984375 0)"/>
      <use xlink:href="#DejaVuSans-2c" transform="translate(947.607422 0)"/>
      <use xlink:href="#DejaVuSans-20" transform="translate(979.394531 0)"/>
      <use xlink:href="#DejaVuSans-31" transform="translate(1011.181641 0)"/>
      <use xlink:href="#DejaVuSans-5d" transform="translate(1074.804688 0)"/>
     </g>
    </g>
    <g id="line2d_29">
     <path d="M 265.647187 193.900313 
L 275.647187 193.900313 
L 285.647187 193.900313 
" style="fill: none; stroke: #ff7f0e; stroke-width: 1.5; stroke-linecap: square"/>
    </g>
    <g id="text_16">
     <!-- Gated DeltaProduct [-1, 1] -->
     <g transform="translate(293.647187 197.400313) scale(0.1 -0.1)">
      <defs>
       <path id="DejaVuSans-50" d="M 1259 4147 
L 1259 2394 
L 2053 2394 
Q 2494 2394 2734 2622 
Q 2975 2850 2975 3272 
Q 2975 3691 2734 3919 
Q 2494 4147 2053 4147 
L 1259 4147 
z
M 628 4666 
L 2053 4666 
Q 2838 4666 3239 4311 
Q 3641 3956 3641 3272 
Q 3641 2581 3239 2228 
Q 2838 1875 2053 1875 
L 1259 1875 
L 1259 0 
L 628 0 
L 628 4666 
z
" transform="scale(0.015625)"/>
      </defs>
      <use xlink:href="#DejaVuSans-47"/>
      <use xlink:href="#DejaVuSans-61" transform="translate(77.490234 0)"/>
      <use xlink:href="#DejaVuSans-74" transform="translate(138.769531 0)"/>
      <use xlink:href="#DejaVuSans-65" transform="translate(177.978516 0)"/>
      <use xlink:href="#DejaVuSans-64" transform="translate(239.501953 0)"/>
      <use xlink:href="#DejaVuSans-20" transform="translate(302.978516 0)"/>
      <use xlink:href="#DejaVuSans-44" transform="translate(334.765625 0)"/>
      <use xlink:href="#DejaVuSans-65" transform="translate(411.767578 0)"/>
      <use xlink:href="#DejaVuSans-6c" transform="translate(473.291016 0)"/>
      <use xlink:href="#DejaVuSans-74" transform="translate(501.074219 0)"/>
      <use xlink:href="#DejaVuSans-61" transform="translate(540.283203 0)"/>
      <use xlink:href="#DejaVuSans-50" transform="translate(601.5625 0)"/>
      <use xlink:href="#DejaVuSans-72" transform="translate(660.115234 0)"/>
      <use xlink:href="#DejaVuSans-6f" transform="translate(698.978516 0)"/>
      <use xlink:href="#DejaVuSans-64" transform="translate(760.160156 0)"/>
      <use xlink:href="#DejaVuSans-75" transform="translate(823.636719 0)"/>
      <use xlink:href="#DejaVuSans-63" transform="translate(887.015625 0)"/>
      <use xlink:href="#DejaVuSans-74" transform="translate(941.996094 0)"/>
      <use xlink:href="#DejaVuSans-20" transform="translate(981.205078 0)"/>
      <use xlink:href="#DejaVuSans-5b" transform="translate(1012.992188 0)"/>
      <use xlink:href="#DejaVuSans-2d" transform="translate(1052.005859 0)"/>
      <use xlink:href="#DejaVuSans-31" transform="translate(1088.089844 0)"/>
      <use xlink:href="#DejaVuSans-2c" transform="translate(1151.712891 0)"/>
      <use xlink:href="#DejaVuSans-20" transform="translate(1183.5 0)"/>
      <use xlink:href="#DejaVuSans-31" transform="translate(1215.287109 0)"/>
      <use xlink:href="#DejaVuSans-5d" transform="translate(1278.910156 0)"/>
     </g>
    </g>
    <g id="line2d_30">
     <path d="M 265.647187 208.578438 
L 275.647187 208.578438 
L 285.647187 208.578438 
" style="fill: none; stroke: #2ca02c; stroke-width: 1.5; stroke-linecap: square"/>
    </g>
    <g id="text_17">
     <!-- GRU -->
     <g transform="translate(293.647187 212.078438) scale(0.1 -0.1)">
      <defs>
       <path id="DejaVuSans-52" d="M 2841 2188 
Q 3044 2119 3236 1894 
Q 3428 1669 3622 1275 
L 4263 0 
L 3584 0 
L 2988 1197 
Q 2756 1666 2539 1819 
Q 2322 1972 1947 1972 
L 1259 1972 
L 1259 0 
L 628 0 
L 628 4666 
L 2053 4666 
Q 2853 4666 3247 4331 
Q 3641 3997 3641 3322 
Q 3641 2881 3436 2590 
Q 3231 2300 2841 2188 
z
M 1259 4147 
L 1259 2491 
L 2053 2491 
Q 2509 2491 2742 2702 
Q 2975 2913 2975 3322 
Q 2975 3731 2742 3939 
Q 2509 4147 2053 4147 
L 1259 4147 
z
" transform="scale(0.015625)"/>
       <path id="DejaVuSans-55" d="M 556 4666 
L 1191 4666 
L 1191 1831 
Q 1191 1081 1462 751 
Q 1734 422 2344 422 
Q 2950 422 3222 751 
Q 3494 1081 3494 1831 
L 3494 4666 
L 4128 4666 
L 4128 1753 
Q 4128 841 3676 375 
Q 3225 -91 2344 -91 
Q 1459 -91 1007 375 
Q 556 841 556 1753 
L 556 4666 
z
" transform="scale(0.015625)"/>
      </defs>
      <use xlink:href="#DejaVuSans-47"/>
      <use xlink:href="#DejaVuSans-52" transform="translate(77.490234 0)"/>
      <use xlink:href="#DejaVuSans-55" transform="translate(146.972656 0)"/>
     </g>
    </g>
    <g id="line2d_31">
     <path d="M 265.647187 223.256563 
L 275.647187 223.256563 
L 285.647187 223.256563 
" style="fill: none; stroke: #d62728; stroke-width: 1.5; stroke-linecap: square"/>
    </g>
    <g id="text_18">
     <!-- M$^2$RNN -->
     <g transform="translate(293.647187 226.756563) scale(0.1 -0.1)">
      <defs>
       <path id="DejaVuSans-4d" d="M 628 4666 
L 1569 4666 
L 2759 1491 
L 3956 4666 
L 4897 4666 
L 4897 0 
L 4281 0 
L 4281 4097 
L 3078 897 
L 2444 897 
L 1241 4097 
L 1241 0 
L 628 0 
L 628 4666 
z
" transform="scale(0.015625)"/>
      </defs>
      <use xlink:href="#DejaVuSans-4d" transform="translate(0 0.765625)"/>
      <use xlink:href="#DejaVuSans-32" transform="translate(87.236328 39.046875) scale(0.7)"/>
      <use xlink:href="#DejaVuSans-52" transform="translate(134.506836 0.765625)"/>
      <use xlink:href="#DejaVuSans-4e" transform="translate(203.989258 0.765625)"/>
      <use xlink:href="#DejaVuSans-4e" transform="translate(278.793945 0.765625)"/>
     </g>
    </g>
   </g>
  </g>
 </g>
 <defs>
  <clipPath id="p461f930700">
   <rect x="79.31" y="32.64" width="532.465" height="338.68"/>
  </clipPath>
 </defs>
</svg>
